<mxfile host="app.diagrams.net" modified="2023-06-25T05:52:09.763Z" agent="Mozilla/5.0 (Windows NT 10.0; Win64; x64) AppleWebKit/537.36 (KHTML, like Gecko) Chrome/114.0.0.0 Safari/537.36 Edg/114.0.1823.55" etag="SnIR5mHS8hqHIb6tedLL" version="21.5.0" type="github">
  <diagram name="Page-1" id="Zr6esaowvYapQYCDYAU-">
    <mxGraphModel dx="743" dy="430" grid="1" gridSize="10" guides="1" tooltips="1" connect="1" arrows="1" fold="1" page="1" pageScale="1" pageWidth="827" pageHeight="1169" math="0" shadow="0">
      <root>
        <mxCell id="0" />
        <mxCell id="1" parent="0" />
        <mxCell id="_YvO7JM4tukkCyHaxjrm-6" style="edgeStyle=orthogonalEdgeStyle;rounded=0;orthogonalLoop=1;jettySize=auto;html=1;" edge="1" parent="1" source="_YvO7JM4tukkCyHaxjrm-1">
          <mxGeometry relative="1" as="geometry">
            <mxPoint x="440" y="110" as="targetPoint" />
          </mxGeometry>
        </mxCell>
        <mxCell id="_YvO7JM4tukkCyHaxjrm-7" value="" style="edgeStyle=orthogonalEdgeStyle;rounded=0;orthogonalLoop=1;jettySize=auto;html=1;" edge="1" parent="1" source="_YvO7JM4tukkCyHaxjrm-1" target="_YvO7JM4tukkCyHaxjrm-5">
          <mxGeometry relative="1" as="geometry" />
        </mxCell>
        <mxCell id="_YvO7JM4tukkCyHaxjrm-1" value="Customer" style="shape=umlActor;verticalLabelPosition=bottom;verticalAlign=top;html=1;outlineConnect=0;" vertex="1" parent="1">
          <mxGeometry x="330" y="80" width="30" height="60" as="geometry" />
        </mxCell>
        <mxCell id="_YvO7JM4tukkCyHaxjrm-4" value="Make orders" style="whiteSpace=wrap;html=1;aspect=fixed;" vertex="1" parent="1">
          <mxGeometry x="590" y="85" width="80" height="80" as="geometry" />
        </mxCell>
        <mxCell id="_YvO7JM4tukkCyHaxjrm-5" value="Make Payments" style="whiteSpace=wrap;html=1;aspect=fixed;" vertex="1" parent="1">
          <mxGeometry x="305" y="220" width="80" height="80" as="geometry" />
        </mxCell>
        <mxCell id="_YvO7JM4tukkCyHaxjrm-9" style="edgeStyle=orthogonalEdgeStyle;rounded=0;orthogonalLoop=1;jettySize=auto;html=1;entryX=0;entryY=0.5;entryDx=0;entryDy=0;" edge="1" parent="1" source="_YvO7JM4tukkCyHaxjrm-8" target="_YvO7JM4tukkCyHaxjrm-4">
          <mxGeometry relative="1" as="geometry" />
        </mxCell>
        <mxCell id="_YvO7JM4tukkCyHaxjrm-8" value="Add products to Cart" style="whiteSpace=wrap;html=1;aspect=fixed;" vertex="1" parent="1">
          <mxGeometry x="440" y="80" width="90" height="90" as="geometry" />
        </mxCell>
      </root>
    </mxGraphModel>
  </diagram>
</mxfile>
